<mxfile host="65bd71144e">
    <diagram id="Z86SHZ22xJm4C7N7x-0L" name="Page-1">
        <mxGraphModel dx="1065" dy="406" grid="1" gridSize="10" guides="1" tooltips="1" connect="1" arrows="1" fold="1" page="1" pageScale="1" pageWidth="827" pageHeight="1169" math="0" shadow="0">
            <root>
                <mxCell id="0"/>
                <mxCell id="1" parent="0"/>
                <mxCell id="14" value="" style="rounded=1;whiteSpace=wrap;html=1;labelBackgroundColor=none;strokeColor=none;strokeWidth=2;fillColor=default;" parent="1" vertex="1">
                    <mxGeometry x="100" y="50" width="1120" height="910" as="geometry"/>
                </mxCell>
                <mxCell id="5" value="&lt;b style=&quot;&quot;&gt;&amp;nbsp; Cryptellation System&lt;br&gt;&amp;nbsp;&amp;nbsp;&lt;/b&gt;&lt;span style=&quot;&quot;&gt;[Software System]&lt;/span&gt;" style="rounded=0;whiteSpace=wrap;html=1;fillColor=none;dashed=1;strokeWidth=2;strokeColor=#B3B3B3;align=left;verticalAlign=bottom;" parent="1" vertex="1">
                    <mxGeometry x="140" y="220" width="1040" height="440" as="geometry"/>
                </mxCell>
                <mxCell id="13" value="&amp;nbsp; &lt;b&gt;Exchanges&lt;/b&gt;&lt;br&gt;&amp;nbsp; [Microservice]" style="rounded=0;whiteSpace=wrap;html=1;labelBackgroundColor=none;strokeColor=#DAE8FC;strokeWidth=2;fillColor=none;verticalAlign=bottom;align=left;" parent="1" vertex="1">
                    <mxGeometry x="160" y="240" width="1000" height="380" as="geometry"/>
                </mxCell>
                <mxCell id="15" value="&amp;nbsp; &lt;b&gt;Application&lt;/b&gt;&lt;br&gt;&amp;nbsp; [Container]" style="rounded=0;whiteSpace=wrap;html=1;labelBackgroundColor=none;strokeColor=#666666;strokeWidth=2;fillColor=#f5f5f5;verticalAlign=bottom;align=left;fontColor=#333333;" parent="1" vertex="1">
                    <mxGeometry x="180" y="280" width="530" height="300" as="geometry"/>
                </mxCell>
                <mxCell id="2" value="&lt;b&gt;gRPC Controller&lt;/b&gt;&lt;br&gt;[Component: controller]&lt;br&gt;Receives gRPC request and redirect them to the correct commands/queries" style="rounded=0;whiteSpace=wrap;html=1;fillColor=#d5e8d4;strokeColor=#82b366;" parent="1" vertex="1">
                    <mxGeometry x="200" y="260" width="200" height="80" as="geometry"/>
                </mxCell>
                <mxCell id="3" value="&lt;b&gt;Database&lt;/b&gt;&lt;br&gt;[Container: SQL]&lt;br&gt;Stores candlesticks for further reuse" style="shape=cylinder3;whiteSpace=wrap;html=1;boundedLbl=1;backgroundOutline=1;size=7;fillColor=#f5f5f5;strokeColor=#666666;fontColor=#333333;" parent="1" vertex="1">
                    <mxGeometry x="840" y="290" width="160" height="80" as="geometry"/>
                </mxCell>
                <mxCell id="4" value="&lt;b style=&quot;color: rgb(51 , 51 , 51)&quot;&gt;Exchanges&lt;/b&gt;&lt;br style=&quot;color: rgb(51 , 51 , 51)&quot;&gt;&lt;span style=&quot;color: rgb(51 , 51 , 51)&quot;&gt;[Container: Internet Service]&lt;/span&gt;&lt;br style=&quot;color: rgb(51 , 51 , 51)&quot;&gt;&lt;span style=&quot;color: rgb(51 , 51 , 51)&quot;&gt;API that exchanges provides to get informations.&lt;/span&gt;" style="rounded=1;whiteSpace=wrap;html=1;fillColor=#f5f5f5;fontColor=#333333;strokeColor=#666666;" parent="1" vertex="1">
                    <mxGeometry x="850" y="680" width="200" height="80" as="geometry"/>
                </mxCell>
                <mxCell id="7" value="&lt;span style=&quot;color: rgb(0 , 0 , 0) ; font-family: &amp;#34;helvetica&amp;#34; ; font-size: 11px ; font-style: normal ; font-weight: 400 ; letter-spacing: normal ; text-align: center ; text-indent: 0px ; text-transform: none ; word-spacing: 0px ; background-color: rgb(255 , 255 , 255) ; display: inline ; float: none&quot;&gt;Get candlesticks&lt;/span&gt;&lt;br style=&quot;color: rgb(0 , 0 , 0) ; font-family: &amp;#34;helvetica&amp;#34; ; font-size: 11px ; font-style: normal ; font-weight: 400 ; letter-spacing: normal ; text-align: center ; text-indent: 0px ; text-transform: none ; word-spacing: 0px&quot;&gt;&lt;span style=&quot;color: rgb(0 , 0 , 0) ; font-family: &amp;#34;helvetica&amp;#34; ; font-size: 11px ; font-style: normal ; font-weight: 400 ; letter-spacing: normal ; text-align: center ; text-indent: 0px ; text-transform: none ; word-spacing: 0px ; background-color: rgb(255 , 255 , 255) ; display: inline ; float: none&quot;&gt;[JSON+HTTPS]&lt;/span&gt;" style="endArrow=none;dashed=1;html=1;exitX=0.75;exitY=0;exitDx=0;exitDy=0;entryX=1;entryY=0.5;entryDx=0;entryDy=0;edgeStyle=orthogonalEdgeStyle;startArrow=classic;startFill=1;" parent="1" source="4" target="16" edge="1">
                    <mxGeometry x="-0.5" width="50" height="50" relative="1" as="geometry">
                        <mxPoint x="390" y="430" as="sourcePoint"/>
                        <mxPoint x="440" y="380" as="targetPoint"/>
                        <mxPoint as="offset"/>
                    </mxGeometry>
                </mxCell>
                <mxCell id="10" value="&lt;font face=&quot;helvetica&quot;&gt;Reads from&lt;br&gt;Writes to&lt;br&gt;[SQL]&lt;br&gt;&lt;/font&gt;" style="endArrow=none;dashed=1;html=1;exitX=0;exitY=0.5;exitDx=0;exitDy=0;entryX=1;entryY=0.5;entryDx=0;entryDy=0;edgeStyle=orthogonalEdgeStyle;startArrow=classic;startFill=1;exitPerimeter=0;" parent="1" source="3" target="18" edge="1">
                    <mxGeometry width="50" height="50" relative="1" as="geometry">
                        <mxPoint x="360" y="490" as="sourcePoint"/>
                        <mxPoint x="360" y="360" as="targetPoint"/>
                        <mxPoint as="offset"/>
                    </mxGeometry>
                </mxCell>
                <mxCell id="11" value="&lt;b style=&quot;color: rgb(0 , 0 , 0) ; font-family: &amp;#34;helvetica&amp;#34; ; font-size: 12px ; font-style: normal ; letter-spacing: normal ; text-align: center ; text-indent: 0px ; text-transform: none ; word-spacing: 0px&quot;&gt;User&lt;/b&gt;&lt;br style=&quot;color: rgb(0 , 0 , 0) ; font-family: &amp;#34;helvetica&amp;#34; ; font-size: 12px ; font-style: normal ; font-weight: 400 ; letter-spacing: normal ; text-align: center ; text-indent: 0px ; text-transform: none ; word-spacing: 0px&quot;&gt;&lt;span style=&quot;color: rgb(0 , 0 , 0) ; font-family: &amp;#34;helvetica&amp;#34; ; font-size: 12px ; font-style: normal ; font-weight: 400 ; letter-spacing: normal ; text-align: center ; text-indent: 0px ; text-transform: none ; word-spacing: 0px ; display: inline ; float: none&quot;&gt;[Container: Application]&lt;/span&gt;&lt;br style=&quot;color: rgb(0 , 0 , 0) ; font-family: &amp;#34;helvetica&amp;#34; ; font-size: 12px ; font-style: normal ; font-weight: 400 ; letter-spacing: normal ; text-align: center ; text-indent: 0px ; text-transform: none ; word-spacing: 0px&quot;&gt;&lt;span style=&quot;color: rgb(0 , 0 , 0) ; font-family: &amp;#34;helvetica&amp;#34; ; font-size: 12px ; font-style: normal ; font-weight: 400 ; letter-spacing: normal ; text-align: center ; text-indent: 0px ; text-transform: none ; word-spacing: 0px ; display: inline ; float: none&quot;&gt;Application that a user will run to execute its strategies.&lt;/span&gt;" style="rounded=1;whiteSpace=wrap;html=1;strokeColor=#666666;strokeWidth=1;fillColor=#f5f5f5;fontColor=#333333;" parent="1" vertex="1">
                    <mxGeometry x="200" y="80" width="200" height="80" as="geometry"/>
                </mxCell>
                <mxCell id="12" value="&lt;font face=&quot;helvetica&quot;&gt;Get candlesticks&lt;br&gt;[gRPC]&lt;br&gt;&lt;/font&gt;" style="endArrow=none;dashed=1;html=1;entryX=0.5;entryY=1;entryDx=0;entryDy=0;edgeStyle=orthogonalEdgeStyle;startArrow=classic;startFill=1;exitX=0.5;exitY=0;exitDx=0;exitDy=0;" parent="1" source="2" target="11" edge="1">
                    <mxGeometry x="0.5" width="50" height="50" relative="1" as="geometry">
                        <mxPoint x="300" y="260" as="sourcePoint"/>
                        <mxPoint x="410" y="330" as="targetPoint"/>
                        <mxPoint as="offset"/>
                    </mxGeometry>
                </mxCell>
                <mxCell id="16" value="&lt;b&gt;Exchange Adapters&lt;/b&gt;&lt;br&gt;[Component: adapter]&lt;br&gt;Adapter to contact exchanges through existing libraries and for mocking purposes." style="rounded=0;whiteSpace=wrap;html=1;fillColor=#d5e8d4;strokeColor=#82b366;" parent="1" vertex="1">
                    <mxGeometry x="530" y="490" width="200" height="80" as="geometry"/>
                </mxCell>
                <mxCell id="18" value="&lt;b&gt;Database Adapter&lt;/b&gt;&lt;br&gt;[Component: adapter]&lt;br&gt;Adapter to read/write DB through existing libraries and for mocking purposes." style="rounded=0;whiteSpace=wrap;html=1;fillColor=#d5e8d4;strokeColor=#82b366;" parent="1" vertex="1">
                    <mxGeometry x="530" y="290" width="200" height="80" as="geometry"/>
                </mxCell>
                <mxCell id="20" value="&lt;b&gt;Cached Read Candlesticks&lt;/b&gt;&lt;br&gt;[Component: command]&lt;br&gt;Read candlesticks from DB, or from exchange API." style="rounded=0;whiteSpace=wrap;html=1;fillColor=#f8cecc;strokeColor=#b85450;" parent="1" vertex="1">
                    <mxGeometry x="200" y="410" width="200" height="80" as="geometry"/>
                </mxCell>
                <mxCell id="21" value="&lt;font face=&quot;helvetica&quot;&gt;Request&lt;br&gt;candlesticks&lt;br&gt;&lt;/font&gt;" style="endArrow=none;dashed=1;html=1;edgeStyle=orthogonalEdgeStyle;startArrow=classic;startFill=1;exitX=0.5;exitY=0;exitDx=0;exitDy=0;entryX=0.5;entryY=1;entryDx=0;entryDy=0;labelBackgroundColor=#F5F5F5;" parent="1" source="20" target="2" edge="1">
                    <mxGeometry width="50" height="50" relative="1" as="geometry">
                        <mxPoint x="309.9999999999998" y="290" as="sourcePoint"/>
                        <mxPoint x="300" y="340" as="targetPoint"/>
                        <mxPoint as="offset"/>
                    </mxGeometry>
                </mxCell>
                <mxCell id="22" value="&lt;font face=&quot;helvetica&quot;&gt;Read/Write&lt;br&gt;candlesticks&lt;br&gt;&lt;/font&gt;" style="endArrow=none;dashed=1;html=1;edgeStyle=orthogonalEdgeStyle;startArrow=classic;startFill=1;entryX=0.75;entryY=0;entryDx=0;entryDy=0;labelBackgroundColor=#F5F5F5;exitX=0;exitY=0.5;exitDx=0;exitDy=0;" parent="1" source="18" target="20" edge="1">
                    <mxGeometry width="50" height="50" relative="1" as="geometry">
                        <mxPoint x="309.9999999999998" y="410" as="sourcePoint"/>
                        <mxPoint x="309.9999999999998" y="350" as="targetPoint"/>
                        <mxPoint as="offset"/>
                        <Array as="points">
                            <mxPoint x="490" y="330"/>
                            <mxPoint x="490" y="370"/>
                            <mxPoint x="350" y="370"/>
                        </Array>
                    </mxGeometry>
                </mxCell>
                <mxCell id="26" value="&lt;font face=&quot;helvetica&quot;&gt;Request&lt;br&gt;candlesticks&lt;br&gt;&lt;/font&gt;" style="endArrow=none;dashed=1;html=1;edgeStyle=orthogonalEdgeStyle;startArrow=classic;startFill=1;entryX=0.5;entryY=1;entryDx=0;entryDy=0;labelBackgroundColor=#F5F5F5;" parent="1" source="16" target="20" edge="1">
                    <mxGeometry width="50" height="50" relative="1" as="geometry">
                        <mxPoint x="710" y="450" as="sourcePoint"/>
                        <mxPoint x="409.9999999999998" y="450" as="targetPoint"/>
                        <mxPoint as="offset"/>
                    </mxGeometry>
                </mxCell>
                <mxCell id="29" value="&lt;b&gt;Candlesticks Domain&lt;/b&gt;&lt;br&gt;[Component: domain]&lt;br&gt;Business Logic related operations&lt;br&gt;on candlesticks" style="rounded=0;whiteSpace=wrap;html=1;fillColor=#fff2cc;strokeColor=#d6b656;" parent="1" vertex="1">
                    <mxGeometry x="490" y="390" width="200" height="80" as="geometry"/>
                </mxCell>
                <mxCell id="30" value="&lt;font face=&quot;helvetica&quot;&gt;Process&lt;br&gt;data&lt;br&gt;&lt;/font&gt;" style="endArrow=none;dashed=1;html=1;edgeStyle=orthogonalEdgeStyle;startArrow=classic;startFill=1;entryX=1;entryY=0.25;entryDx=0;entryDy=0;labelBackgroundColor=#F5F5F5;exitX=0;exitY=0.5;exitDx=0;exitDy=0;" parent="1" source="29" target="20" edge="1">
                    <mxGeometry width="50" height="50" relative="1" as="geometry">
                        <mxPoint x="539.9999999999998" y="540.0000000000001" as="sourcePoint"/>
                        <mxPoint x="309.9999999999998" y="500" as="targetPoint"/>
                        <mxPoint as="offset"/>
                    </mxGeometry>
                </mxCell>
                <mxCell id="31" value="&lt;b&gt;&amp;nbsp; Legende&lt;/b&gt;" style="rounded=0;whiteSpace=wrap;html=1;fillColor=#f5f5f5;fontColor=#333333;strokeColor=#666666;align=left;verticalAlign=top;" parent="1" vertex="1">
                    <mxGeometry x="420" y="810" width="480" height="100" as="geometry"/>
                </mxCell>
                <mxCell id="33" value="&lt;b&gt;Interface adapters&lt;/b&gt;" style="rounded=0;whiteSpace=wrap;html=1;fillColor=#d5e8d4;strokeColor=#82b366;" parent="1" vertex="1">
                    <mxGeometry x="440" y="840" width="140" height="50" as="geometry"/>
                </mxCell>
                <mxCell id="35" value="&lt;b&gt;Business&lt;br&gt;Logic&lt;br&gt;&lt;/b&gt;" style="rounded=0;whiteSpace=wrap;html=1;fillColor=#fff2cc;strokeColor=#d6b656;" parent="1" vertex="1">
                    <mxGeometry x="740" y="840" width="140" height="50" as="geometry"/>
                </mxCell>
                <mxCell id="36" value="&lt;b&gt;Application&lt;br&gt;Commands/Queries&lt;br&gt;&lt;/b&gt;" style="rounded=0;whiteSpace=wrap;html=1;fillColor=#f8cecc;strokeColor=#b85450;" parent="1" vertex="1">
                    <mxGeometry x="590" y="840" width="140" height="50" as="geometry"/>
                </mxCell>
            </root>
        </mxGraphModel>
    </diagram>
</mxfile>
